<svg width="17" height="17" viewBox="0 0 17 17" fill="none" xmlns="http://www.w3.org/2000/svg">
<path d="M15.8931 11.7125L16.4992 12.7819L9.55924 16.6898C8.8278 17.1007 7.93452 17.1039 7.2015 16.6961L0.201268 12.7978L0.801016 11.7252L7.80125 15.622C8.15982 15.8219 8.59615 15.8203 8.95314 15.6188L15.8931 11.7125ZM15.8931 8.02678L16.4992 9.09617L9.55924 13.0025C8.8278 13.4134 7.93452 13.4166 7.2015 13.0088L0.201268 9.11204L0.801016 8.03947L7.80125 11.9362C8.15982 12.1362 8.59615 12.1346 8.95314 11.9331L15.8931 8.02678ZM9.23556 0.228475L16.2612 4.15381C16.6927 4.39498 16.8466 4.93919 16.6055 5.37076C16.5246 5.51514 16.4056 5.63255 16.2612 5.71347L9.23556 9.63721C8.69135 9.94185 8.02813 9.94185 7.48392 9.63721L0.458303 5.71188C0.0267383 5.47071 -0.127165 4.9265 0.114003 4.49652C0.194921 4.35214 0.313919 4.23473 0.458303 4.15381L7.48392 0.228475C8.02813 -0.0761584 8.69135 -0.0761584 9.23556 0.228475ZM8.08525 1.30104L1.58323 4.93284L8.08525 8.56465C8.25502 8.65985 8.46287 8.65985 8.63264 8.56465L15.1347 4.93284L8.63264 1.30104C8.46287 1.20584 8.25502 1.20584 8.08525 1.30104Z" fill="#2C2C2C"/>
</svg>
