<svg width="8" height="9" viewBox="0 0 8 9" fill="none" xmlns="http://www.w3.org/2000/svg">
<path d="M4.00046 7.15472C3.8627 7.15472 3.75071 7.05133 3.75071 6.92414V3.69274C3.75071 3.56555 3.8627 3.46216 4.00046 3.46216C4.13823 3.46216 4.25021 3.56555 4.25021 3.69274V6.92332C4.25021 7.05133 4.13823 7.15472 4.00046 7.15472Z" fill="#BE7171"/>
<path d="M2.50104 7.15472C2.36328 7.15472 2.25129 7.05133 2.25129 6.92414V3.69274C2.25129 3.56555 2.36328 3.46216 2.50104 3.46216C2.63881 3.46216 2.75079 3.56555 2.75079 3.69274V6.92332C2.75079 7.05133 2.63881 7.15472 2.50104 7.15472Z" fill="#BE7171"/>
<path d="M5.50071 7.15472C5.36295 7.15472 5.25096 7.05133 5.25096 6.92414V3.69274C5.25096 3.56555 5.36295 3.46216 5.50071 3.46216C5.63847 3.46216 5.75046 3.56555 5.75046 3.69274V6.92332C5.75046 7.05133 5.63847 7.15472 5.50071 7.15472Z" fill="#BE7171"/>
<path d="M0.501278 0.92314H2.00067V0.46198C2.00067 0.206783 2.22464 0 2.50106 0H5.50072C5.77625 0 6.00111 0.205963 6.00111 0.46198V0.92314H7.49961C7.77602 0.92314 8 1.12992 8 1.3843V1.84546C8 2.10066 7.77602 2.30744 7.49961 2.30744V8.07686C7.49961 8.58643 7.05255 9 6.49972 9H1.50028C0.948339 9 0.500389 8.58725 0.500389 8.07686V2.30744C0.224864 2.30744 -2.14084e-08 2.10148 -2.14084e-08 1.84628V1.3843C0.000888769 1.12992 0.224864 0.92314 0.501278 0.92314ZM5.50072 0.672046C5.50072 0.544858 5.38873 0.441466 5.25097 0.441466H2.75169C2.61393 0.441466 2.50194 0.544858 2.50194 0.672046V0.902626H5.50072V0.672046ZM1.00078 8.07768C1.00078 8.33206 1.22475 8.53884 1.50117 8.53884H6.50061C6.77702 8.53884 7.001 8.33206 7.001 8.07768V2.30744H1.00167V8.07768H1.00078ZM0.751028 1.84628H7.24986C7.38762 1.84628 7.49961 1.74289 7.49961 1.6157C7.49961 1.48851 7.38762 1.38512 7.24986 1.38512H0.750139C0.612377 1.38512 0.500389 1.48851 0.500389 1.6157C0.501278 1.74289 0.613266 1.84628 0.751028 1.84628Z" fill="#BE7171"/>
</svg>
