<svg width="14" height="13" viewBox="0 0 14 13" fill="none" xmlns="http://www.w3.org/2000/svg">
<path d="M13.6672 2.49126C13.4062 2.39764 13.1184 2.53399 13.0269 2.79327L12.6394 3.87313C12.1846 2.85484 11.4663 1.95949 10.5517 1.28865C7.64325 -0.849699 3.49991 -0.267042 1.32051 2.59284C0.265911 3.97723 -0.180839 5.68228 0.0666823 7.39296C0.314203 9.11141 1.23175 10.6321 2.64415 11.6718C3.82798 12.5405 5.21359 12.9628 6.58845 12.9628C8.59833 12.9628 10.581 12.0674 11.8753 10.3703C12.4484 9.6193 12.8384 8.78007 13.0404 7.87132C13.0997 7.60136 12.9274 7.33683 12.6584 7.27798C12.3894 7.21914 12.1203 7.38752 12.0611 7.65749C11.8916 8.42465 11.5606 9.1355 11.0763 9.76904C9.22789 12.1931 5.71137 12.6876 3.24164 10.8703C2.04431 9.99103 1.26949 8.7053 1.0597 7.25138C0.849912 5.80541 1.22647 4.36489 2.11978 3.19433C3.96523 0.769894 7.47901 0.272888 9.95168 2.0902C10.8475 2.74763 11.5176 3.6591 11.8808 4.68807L10.1562 4.01996C9.89792 3.9211 9.60738 4.04676 9.50513 4.30332C9.40287 4.55989 9.53191 4.8485 9.79038 4.95027L12.3303 5.93651C12.3895 5.9606 12.4513 5.97128 12.5131 5.97128C12.5211 5.97128 12.5293 5.96856 12.5374 5.96856C12.5563 5.97128 12.5751 5.97924 12.5939 5.97924C12.8011 5.97924 12.9947 5.85106 13.0674 5.64771L13.9715 3.13548C14.0628 2.87076 13.928 2.58468 13.6672 2.49126Z" fill="#154AD8"/>
</svg>
