<svg width="19" height="19" viewBox="0 0 19 19" fill="none" xmlns="http://www.w3.org/2000/svg">
<path d="M9.80718 8.44424C11.7433 8.44424 13.327 6.8606 13.327 4.92444C13.327 2.98827 11.7433 1.40463 9.80718 1.40463C7.87101 1.40463 6.28738 2.98827 6.28738 4.92444C6.28738 6.86243 7.87101 8.44424 9.80718 8.44424ZM14.7334 14.7788V12.6673C14.7334 12.28 15.0494 11.964 15.4367 11.964C15.8239 11.964 16.1399 12.28 16.1399 12.6673V14.7788H18.2514C18.6387 14.7788 18.9547 15.0948 18.9547 15.482C18.9547 15.8693 18.6387 16.1853 18.2514 16.1853H16.1417V18.2968C16.1417 18.684 15.8257 19 15.4385 19C15.0513 19 14.7353 18.684 14.7353 18.2968V16.1871H12.6219C12.2347 16.1871 11.9187 15.8711 11.9187 15.4838C11.9187 15.0966 12.2347 14.7806 12.6219 14.7806H14.7334V14.7788ZM14.3809 9.39589C14.5928 9.53653 14.7334 9.74841 14.7334 9.99317C14.7334 10.3804 14.4174 10.6964 14.0302 10.6964C13.8896 10.6964 13.7836 10.6617 13.6777 10.5905C12.7279 10.0973 11.6721 9.8507 10.5104 9.8507H9.10212C5.23162 9.8507 2.06434 13.018 2.06434 16.8885C2.06434 17.2757 2.38034 17.5917 2.76757 17.5917H11.2155C11.6027 17.5917 11.9187 17.9077 11.9187 18.2949C11.9187 18.6822 11.6027 18.9982 11.2155 18.9982H2.7694C1.6077 19.0018 0.657883 18.052 0.657883 16.8903C0.657883 13.0545 3.22604 9.81782 6.74585 8.79677C5.62068 7.88166 4.88092 6.5099 4.88092 4.92626C4.88092 2.21746 7.09837 0 9.80718 0C12.516 0 14.7334 2.21746 14.7334 4.92626C14.7334 6.4752 13.9937 7.88166 12.8685 8.79677C13.3964 8.93742 13.9243 9.1493 14.3809 9.39589Z" fill="white"/>
</svg>
