<svg width="17" height="18" viewBox="0 0 17 18" fill="none" xmlns="http://www.w3.org/2000/svg">
<path fill-rule="evenodd" clip-rule="evenodd" d="M0.00012207 6.45668V2.56418C0.00012207 1.48581 0.873585 0.608887 1.9474 0.608887H5.82425C6.89809 0.608887 7.77156 1.48581 7.77156 2.56418V6.45668C7.77156 7.53492 6.89809 8.41197 5.82425 8.41197H1.9474C0.873585 8.41197 0.00012207 7.53492 0.00012207 6.45668V6.45668ZM1.38786 6.45682C1.38786 6.76697 1.6388 7.01871 1.94741 7.01871H5.82425C6.13291 7.01871 6.38382 6.76697 6.38382 6.45682V2.56433C6.38382 2.25454 6.13291 2.00244 5.82425 2.00244H1.94741C1.6388 2.00244 1.38786 2.25454 1.38786 2.56433V6.45682V6.45682Z" fill="#2C2C2C"/>
<path fill-rule="evenodd" clip-rule="evenodd" d="M9.15929 6.45668V2.56418C9.15929 1.48581 10.0327 0.608887 11.1066 0.608887H14.9834C16.0572 0.608887 16.9307 1.48581 16.9307 2.56418V6.45668C16.9307 7.53492 16.0572 8.41197 14.9834 8.41197H11.1066C10.0327 8.41197 9.15929 7.53492 9.15929 6.45668V6.45668ZM10.5471 6.45682C10.5471 6.76697 10.7979 7.01871 11.1066 7.01871H14.9834C15.292 7.01871 15.543 6.76697 15.543 6.45682V2.56433C15.543 2.25454 15.292 2.00244 14.9834 2.00244H11.1066C10.7979 2.00244 10.5471 2.25454 10.5471 2.56433V6.45682V6.45682Z" fill="#2C2C2C"/>
<path fill-rule="evenodd" clip-rule="evenodd" d="M0.00012207 15.6537V11.7605C0.00012207 10.6825 0.873585 9.80542 1.9474 9.80542H5.82425C6.89809 9.80542 7.77156 10.6825 7.77156 11.7605V15.6537C7.77156 16.7317 6.89809 17.6087 5.82425 17.6087H1.9474C0.873585 17.6087 0.00012207 16.7317 0.00012207 15.6537V15.6537ZM1.38786 15.6538C1.38786 15.9637 1.6388 16.2155 1.94741 16.2155H5.82425C6.13291 16.2155 6.38382 15.9637 6.38382 15.6538V11.7606C6.38382 11.4512 6.13291 11.1992 5.82425 11.1992H1.94741C1.6388 11.1992 1.38786 11.4512 1.38786 11.7606V15.6538V15.6538Z" fill="#2C2C2C"/>
<path fill-rule="evenodd" clip-rule="evenodd" d="M9.92253 14.2645C9.53926 14.2645 9.22868 13.9527 9.22868 13.5678C9.22868 13.183 9.53926 12.8711 9.92253 12.8711H16.3062C16.6895 12.8711 17.0001 13.183 17.0001 13.5678C17.0001 13.9527 16.6895 14.2645 16.3062 14.2645H9.92253V14.2645Z" fill="#2C2C2C"/>
<path fill-rule="evenodd" clip-rule="evenodd" d="M12.4205 16.7728V10.3632C12.4205 9.9782 12.7311 9.6665 13.1144 9.6665C13.4977 9.6665 13.8083 9.9782 13.8083 10.3632V16.7728C13.8083 17.1578 13.4977 17.4698 13.1144 17.4698C12.7311 17.4698 12.4205 17.1578 12.4205 16.7728V16.7728Z" fill="#2C2C2C"/>
</svg>
