<svg width="18" height="18" viewBox="0 0 18 18" fill="none" xmlns="http://www.w3.org/2000/svg">
<path d="M13.8221 3.36413L3.36724 13.806V3.36413H13.8221ZM4.16161 14.599L14.6205 4.15267V14.599H4.16161ZM0.587623 3.36797C0.593278 3.36797 0.597801 3.36413 0.603456 3.36413H2.24399V15.16C2.24399 15.1679 2.2406 15.1747 2.24128 15.1824C2.25372 15.4937 2.51587 15.7375 2.82801 15.7247C2.83366 15.7247 2.83796 15.7213 2.84384 15.7208H14.6201V17.4034C14.6201 17.4113 14.6167 17.4181 14.6171 17.4258C14.6128 17.632 14.7221 17.8241 14.9017 17.9262C15.0813 18.0283 15.3022 18.0241 15.4778 17.9149C15.6531 17.806 15.7549 17.6097 15.7424 17.4038V17.3993C15.7424 17.3937 15.7463 17.388 15.7458 17.3815C15.7458 17.377 15.7435 17.3743 15.7431 17.3702V15.7213H17.4207C17.4286 15.7213 17.4359 15.7251 17.4442 15.7247C17.6492 15.721 17.8362 15.6067 17.933 15.4262C18.0298 15.2457 18.0212 15.0267 17.9106 14.8543C17.8 14.6819 17.6046 14.5828 17.3999 14.595C17.3943 14.5956 17.3897 14.599 17.3841 14.599H15.7429V3.03087L17.2533 1.52204C17.366 1.41201 17.4273 1.25972 17.4219 1.10247C17.4096 0.790898 17.147 0.548012 16.8351 0.560213C16.6804 0.566765 16.5352 0.636806 16.4341 0.754296L14.9451 2.24234H3.36724V0.559535C3.36724 0.551853 3.37109 0.545527 3.37109 0.537619C3.35751 0.232825 3.10305 -0.00576827 2.79747 0.000106182C2.4919 0.00598063 2.24693 0.254289 2.24535 0.559535H2.24422V0.563602C2.24422 0.569702 2.24151 0.575351 2.24151 0.581451C2.24151 0.58597 2.24422 0.589359 2.24422 0.593878V2.24279H0.568171C0.559576 2.24279 0.552338 2.23782 0.543969 2.23827C0.231604 2.25047 -0.0117738 2.51302 0.000440342 2.82504C0.0124283 3.13706 0.275484 3.37995 0.587623 3.36797Z" fill="#909399"/>
</svg>
