<svg width="17" height="17" viewBox="0 0 17 17" fill="none" xmlns="http://www.w3.org/2000/svg">
<path d="M7.50049 9.49861C7.77576 9.77388 7.80322 10.2109 7.56448 10.5185L7.50049 10.5912L2.6389 15.4537L6.16398 15.4546C6.55576 15.4546 6.88536 15.748 6.93124 16.1368L6.93667 16.2273C6.93667 16.6194 6.64299 16.949 6.25363 16.9946L6.16398 17H0.772686L0.714735 16.9976L0.617243 16.9846L0.531524 16.9614L0.445804 16.9276L0.370044 16.8874L0.295794 16.8355L0.226373 16.7736C0.19951 16.7468 0.174156 16.7178 0.151519 16.687L0.0965858 16.6019L0.0549332 16.5138L0.0280702 16.4326L0.00482929 16.3167L0 16.2264V10.8146C0.000905492 10.4059 0.319639 10.0688 0.727713 10.0449C1.13579 10.0211 1.49165 10.3193 1.53994 10.7252L1.54537 10.8149L1.54477 14.3608L6.40786 9.49861C6.70969 9.19708 7.19866 9.19708 7.50049 9.49861ZM10.8354 0H16.2264L16.2844 0.00241464L16.3819 0.0153934L16.4676 0.0386343L16.5533 0.0724393L16.6291 0.112583L16.7033 0.164498L16.7727 0.226373C16.8005 0.253538 16.8252 0.282815 16.8476 0.312998L16.9025 0.398114L16.9442 0.486249L16.971 0.567441L16.9943 0.683344L16.9988 0.772988V6.18481C16.9979 6.59349 16.6792 6.93063 16.2711 6.95448C15.863 6.97802 15.5071 6.68011 15.4589 6.27415L15.4537 6.18451V2.638L10.5912 7.50049C10.3027 7.78813 9.84028 7.80232 9.53483 7.53278C9.22937 7.26325 9.18531 6.80296 9.43462 6.4806L9.49891 6.40786L14.3596 1.54537H10.8363C10.4442 1.54567 10.114 1.2526 10.0682 0.862933L10.0627 0.772686C10.0627 0.380608 10.3564 0.0510094 10.7458 0.00543295L10.8354 0Z" fill="#909399"/>
</svg>
