<svg width="17" height="15" viewBox="0 0 17 15" fill="none" xmlns="http://www.w3.org/2000/svg">
<path d="M7.71292 1.89321H11.8103C12.2694 1.89321 12.7099 2.06198 13.0346 2.36237C13.3593 2.66276 13.5417 3.0703 13.5417 3.49506C13.5417 3.70325 13.6617 3.89558 13.8563 3.99956C14.0512 4.10354 14.2912 4.10354 14.4858 3.99956C14.6807 3.89558 14.8007 3.70325 14.8007 3.49506C14.8007 1.96683 13.4616 0.728123 11.8101 0.728123H7.71292C7.48789 0.728123 7.28001 0.839127 7.16763 1.01945C7.05524 1.19978 7.05524 1.42178 7.16763 1.60211C7.28001 1.78243 7.48789 1.89321 7.71292 1.89321ZM8.92103 2.91263L7.52952 0.3233C7.42937 0.136859 7.22933 0.0140751 7.0048 0.00116238C6.78026 -0.0119768 6.56528 0.0870203 6.4409 0.260322C6.31651 0.43385 6.30157 0.655405 6.40148 0.841846L7.85836 3.55283C8.03123 3.87451 8.38627 4.07794 8.77436 4.07794H14.0091C14.4682 4.07794 14.9087 4.24671 15.2334 4.5471C15.5581 4.84749 15.7405 5.25504 15.7405 5.6798V11.505C15.7405 11.8267 16.0225 12.0877 16.3702 12.0877C16.7179 12.0877 17 11.8269 17 11.505V5.67957C17 4.15134 15.6611 2.91263 14.0093 2.91263H8.92103ZM15.7405 7.86997V12.2331C15.7405 12.6578 15.5581 13.0654 15.2334 13.3658C14.9087 13.6662 14.4682 13.8349 14.0091 13.8349H2.99065C2.03425 13.8349 1.25904 13.1177 1.25904 12.2331V2.76697C1.25904 2.34221 1.44146 1.93467 1.76614 1.63428C2.09081 1.33389 2.53131 1.16512 2.99041 1.16512H6.96489C7.31258 1.16512 7.59441 0.90437 7.59441 0.582686C7.59441 0.261002 7.31233 0.000256228 6.96489 0.000256228H2.9909C1.33886 2.96898e-05 0 1.23897 0 2.76697V12.2331C0 13.7613 1.33886 15 2.9909 15H14.0093C15.6611 15 17 13.7613 17 12.2331V7.86997C17 7.54828 16.7182 7.28754 16.3702 7.28754C16.0225 7.28754 15.7405 7.54828 15.7405 7.86997Z" fill="#909399"/>
</svg>
