<svg width="8" height="8" viewBox="0 0 8 8" fill="none" xmlns="http://www.w3.org/2000/svg">
<path d="M7.36778 4.2106C7.36778 4.03638 7.50934 3.89482 7.68357 3.89482C7.8578 3.89482 7.99937 4.03638 7.99937 4.2106V6.84213C7.99937 7.48168 7.48103 8 6.84146 8H1.15718C0.518336 8 0 7.48168 0 6.84213V1.47381C0 0.83426 0.518336 0.31594 1.15791 0.31594H3.89478C4.06901 0.31594 4.21057 0.457498 4.21057 0.631724C4.21057 0.805949 4.06901 0.947507 3.89478 0.947507H1.15791C0.867524 0.947507 0.631586 1.18344 0.631586 1.47381V6.84213C0.631586 6.98151 0.686759 7.11581 0.78549 7.21453C0.884221 7.31326 1.0178 7.36843 1.15791 7.36843H6.84218C6.98157 7.36843 7.11587 7.31326 7.2146 7.21453C7.31333 7.11581 7.36851 6.98223 7.36851 6.84213V4.2106H7.36778ZM6.95326 1.47381L6.06686 0.53227C5.94707 0.405231 5.95361 0.205597 6.08065 0.0858176C6.20769 -0.0339622 6.40733 -0.0274288 6.52712 0.0996105L7.9137 1.57327C8.10318 1.77508 7.96016 2.10538 7.68357 2.10538H6.0988C5.29298 2.10538 4.63163 2.80809 4.63163 3.6843V5.57899C4.63163 5.75322 4.49007 5.89478 4.31584 5.89478C4.14161 5.89478 4.00005 5.75322 4.00005 5.57899V3.6843C4.00005 2.46762 4.93508 1.47381 6.0988 1.47381H6.95326Z" fill="#666666"/>
</svg>
