<svg width="16" height="3" viewBox="0 0 16 3" fill="none" xmlns="http://www.w3.org/2000/svg">
<path d="M1.55301 0C2.41072 0 3.10602 0.671573 3.10602 1.5C3.10602 2.32843 2.41072 3 1.55301 3C0.695307 3 0 2.32843 0 1.5C0 0.671573 0.695307 0 1.55301 0Z" fill="#909399"/>
<path d="M7.92777 0C8.78547 0 9.48078 0.671573 9.48078 1.5C9.48078 2.32843 8.78547 3 7.92777 3C7.07006 3 6.37476 2.32843 6.37476 1.5C6.37476 0.671573 7.07006 0 7.92777 0Z" fill="#909399"/>
<path d="M14.4471 0C15.3048 0 16.0001 0.671573 16.0001 1.5C16.0001 2.32843 15.3048 3 14.4471 3C13.5893 3 12.894 2.32843 12.894 1.5C12.894 0.671573 13.5893 0 14.4471 0Z" fill="#909399"/>
</svg>
