<svg width="14" height="14" viewBox="0 0 14 14" fill="none" xmlns="http://www.w3.org/2000/svg">
<path d="M4.18971 7.33165C4.18141 7.34233 4.17192 7.35419 4.16836 7.36843L3.4922 9.84767C3.45305 9.99239 3.49339 10.1478 3.60015 10.2569C3.67963 10.3352 3.7852 10.3779 3.89789 10.3779C3.93467 10.3779 3.97263 10.3732 4.00822 10.3637L6.46966 9.69227C6.47322 9.69227 6.47559 9.69583 6.47797 9.69583C6.50644 9.69583 6.53372 9.68515 6.55507 9.6638L13.1387 3.08136C13.3344 2.88563 13.4412 2.61872 13.4412 2.32809C13.4412 1.9995 13.3012 1.67092 13.058 1.42655L12.4364 0.803775C12.1921 0.55941 11.8635 0.419434 11.5349 0.419434C11.2443 0.419434 10.9786 0.526195 10.7816 0.721925L4.1992 7.30911C4.19208 7.31504 4.19445 7.32453 4.18971 7.33165ZM12.4946 2.43841L11.841 3.09203L10.7805 2.01493L11.4246 1.3708C11.5266 1.26878 11.7235 1.28302 11.841 1.40045L12.4625 2.02323C12.5278 2.08847 12.5646 2.17388 12.5646 2.25929C12.5657 2.32928 12.5408 2.39215 12.4946 2.43841ZM5.36053 7.43485L10.1114 2.68396L11.1719 3.76107L6.42933 8.50366L5.36053 7.43485ZM4.49457 9.36131L4.8374 8.10152L5.75317 9.0173L4.49457 9.36131Z" fill="#3D5ED1"/>
<path d="M12.9122 5.04697C12.6631 5.04697 12.4591 5.24981 12.4579 5.50248V11.6389C12.4579 11.9604 12.1969 12.2225 11.8743 12.2225H1.49229C1.17082 12.2225 0.907473 11.9616 0.907473 11.6389V1.62229C0.907473 1.29964 1.16963 1.03866 1.49229 1.03866H8.17794C8.42823 1.03866 8.63227 0.834631 8.63227 0.584335C8.63227 0.334038 8.42942 0.130005 8.17794 0.130005H1.42349C0.639383 0.130005 0 0.768202 0 1.55349V11.7077C0 12.493 0.638197 13.13 1.42349 13.13H11.9431C12.7284 13.13 13.3665 12.4918 13.3665 11.7077V5.49892C13.3654 5.24981 13.1613 5.04697 12.9122 5.04697Z" fill="#3D5ED1"/>
</svg>
