<svg width="18" height="18" viewBox="0 0 18 18" fill="none" xmlns="http://www.w3.org/2000/svg">
<path d="M9 18C7.78591 18 6.60604 17.7624 5.49664 17.2933C4.4255 16.8403 3.46309 16.1919 2.63557 15.3644C1.81007 14.5389 1.15973 13.5765 0.706711 12.5034C0.237584 11.394 0 10.2141 0 9C0 7.78591 0.237584 6.60604 0.706711 5.49664C1.15973 4.4255 1.80805 3.46309 2.63557 2.63557C3.46107 1.81007 4.42349 1.15973 5.49664 0.706711C6.60604 0.237584 7.78591 0 9 0C10.2141 0 11.394 0.237584 12.5034 0.706711C13.5745 1.15973 14.5369 1.80805 15.3644 2.63557C16.1899 3.46107 16.8403 4.42349 17.2933 5.49664C17.7624 6.60604 18 7.78591 18 9C18 10.2141 17.7624 11.394 17.2933 12.5034C16.8403 13.5745 16.1919 14.5369 15.3644 15.3644C14.5389 16.1899 13.5765 16.8403 12.5034 17.2933C11.394 17.7624 10.2161 18 9 18ZM9 1.12752C7.93691 1.12752 6.90604 1.3349 5.93557 1.74564C4.99732 2.14228 4.1557 2.71007 3.43289 3.43289C2.71007 4.1557 2.14228 4.99732 1.74564 5.93557C1.3349 6.90604 1.12752 7.93691 1.12752 9C1.12752 10.0631 1.3349 11.094 1.74564 12.0644C2.14228 13.0027 2.71007 13.8443 3.43289 14.5671C4.1557 15.2899 4.99732 15.8577 5.93557 16.2544C6.90604 16.6651 7.93691 16.8725 9 16.8725C10.0631 16.8725 11.094 16.6651 12.0644 16.2544C13.0027 15.8577 13.8443 15.2899 14.5671 14.5671C15.2899 13.8443 15.8577 13.0027 16.2544 12.0644C16.6651 11.094 16.8725 10.0631 16.8725 9C16.8725 7.93691 16.6651 6.90604 16.2544 5.93557C15.8577 4.99732 15.2899 4.1557 14.5671 3.43289C13.8443 2.71007 13.0027 2.14228 12.0644 1.74564C11.094 1.33691 10.0631 1.12752 9 1.12752Z" fill="#909399"/>
<path d="M10.7316 7.21597C10.7316 7.60959 10.9415 7.97302 11.2822 8.16983C11.623 8.36664 12.0428 8.36664 12.3836 8.16983C12.7244 7.97302 12.9343 7.60959 12.9343 7.21597C12.9343 6.8226 12.7244 6.45892 12.3836 6.26211C12.0428 6.0653 11.623 6.0653 11.2822 6.26211C10.9415 6.45892 10.7316 6.8226 10.7316 7.21597Z" fill="#909399"/>
<path d="M5.05969 7.21597C5.05969 7.82428 5.55273 8.31731 6.16103 8.31731C6.76934 8.31731 7.26238 7.82428 7.26238 7.21597C7.26238 6.8226 7.05248 6.45892 6.71171 6.26211C6.37093 6.0653 5.95114 6.0653 5.61036 6.26211C5.26959 6.45892 5.05969 6.8226 5.05969 7.21597Z" fill="#909399"/>
<path d="M8.99997 14.3156C8.14225 14.3156 7.29057 14.1062 6.53554 13.7095C5.99191 13.4256 5.49863 13.0431 5.08386 12.5921C4.85433 12.3424 4.89259 11.9478 5.16842 11.7505C5.39997 11.5854 5.71809 11.6156 5.91138 11.825C6.23957 12.1833 6.63017 12.4854 7.06104 12.7109C7.66306 13.027 8.31742 13.186 9.00198 13.186C9.68655 13.186 10.3409 13.025 10.9429 12.7109C11.3738 12.4854 11.7644 12.1833 12.0926 11.825C12.2839 11.6156 12.604 11.5854 12.8355 11.7505C13.1114 11.9478 13.1496 12.3424 12.9201 12.5921C12.5053 13.0451 12.012 13.4256 11.4684 13.7095C10.7094 14.1062 9.85769 14.3156 8.99997 14.3156Z" fill="#909399"/>
</svg>
