<svg width="18" height="17" viewBox="0 0 18 17" fill="none" xmlns="http://www.w3.org/2000/svg">
<path d="M13.8492 0.194339C14.1078 0.450393 14.1104 0.864472 13.8569 1.12385L13.8492 1.1315L12.3447 2.62214H15.1397C16.5937 2.62214 17.7727 3.79263 17.7727 5.23629V14.3858C17.7727 15.8298 16.594 17 15.1397 17H2.63299C1.17893 17 0 15.8298 0 14.3861V5.23655C0 3.79289 1.17893 2.62239 2.63299 2.62239H5.43208L3.92788 1.13176C3.66664 0.872896 3.66664 0.453201 3.92788 0.194339C4.18912 -0.0645243 4.61261 -0.0645243 4.8736 0.194339L7.32377 2.62239H10.453L12.9032 0.194339C13.1644 -0.0647795 13.5879 -0.0647795 13.8492 0.194339ZM15.1397 3.92921H2.63299C1.91329 3.92921 1.32832 4.50285 1.31675 5.21485L1.31649 5.23629V14.3858C1.31649 15.1004 1.89426 15.6812 2.61139 15.6927L2.63299 15.6929H15.1397C15.8594 15.6929 16.4443 15.1193 16.4559 14.4075L16.4562 14.3861V5.23655C16.4562 4.51459 15.8668 3.92921 15.1397 3.92921ZM7.38471 6.42109C7.62769 6.42109 7.86682 6.48848 8.08409 6.62532L11.6427 8.81059C12.2534 9.18153 12.4452 9.98722 12.0541 10.6078C11.9539 10.7786 11.8037 10.9267 11.6222 11.0367L8.06352 13.1811C7.44282 13.5498 6.63415 13.3519 6.25334 12.7318C6.13404 12.5296 6.06821 12.2955 6.06821 12.0579V7.72817C6.06821 7.00646 6.65703 6.42109 7.38471 6.42109ZM7.40939 7.93521C7.39319 7.96099 7.38471 7.99086 7.38471 8.02124V11.7676C7.38471 11.8266 7.41685 11.8809 7.46853 11.9098C7.52047 11.9389 7.58372 11.9376 7.63463 11.907L10.7137 10.0516C10.7626 10.0219 10.7927 9.96935 10.7929 9.91242C10.7932 9.85549 10.7636 9.80264 10.7148 9.77277L7.63566 7.88185C7.55852 7.83462 7.45722 7.85836 7.40939 7.93521Z" fill="#909399"/>
</svg>
