<svg width="14" height="14" viewBox="0 0 14 14" fill="none" xmlns="http://www.w3.org/2000/svg">
<path d="M12.25 14H1.50021C0.948214 14 0.500977 13.5514 0.499634 12.9994V11.2508C0.499634 10.9741 0.723924 10.7512 0.99925 10.7512C1.27592 10.7512 1.49887 10.9754 1.49887 11.2508V13.0008H12.2487V1.00058H1.50021V3.25019C1.50021 3.52686 1.27592 3.74981 1.00059 3.74981C0.723924 3.74981 0.500977 3.52552 0.500977 3.25019V1.00058C0.500977 0.44858 0.949557 0.00134305 1.50155 0H12.2514C12.8034 0 13.2506 0.44858 13.2519 1.00058V13.0008C13.2492 13.5528 12.802 14 12.25 14Z" fill="#164BD8"/>
<path d="M1.50019 9.75056H0.499616C0.22429 9.75056 0 9.52627 0 9.25094C0 8.97427 0.22429 8.75133 0.499616 8.75133H1.50019C1.77686 8.75133 1.99981 8.97562 1.99981 9.25094C1.99981 9.52627 1.77686 9.75056 1.50019 9.75056ZM1.50019 7.75075H0.499616C0.22429 7.75075 0 7.52646 0 7.24979C0 6.97312 0.22429 6.75017 0.499616 6.75017H1.50019C1.77686 6.75017 1.99981 6.97446 1.99981 7.24979C1.99981 7.52646 1.77686 7.75075 1.50019 7.75075ZM1.50019 5.7496H0.499616C0.22429 5.7496 0 5.52665 0 5.24998C0 4.97331 0.22429 4.75037 0.499616 4.75037H1.50019C1.77686 4.75037 1.99981 4.97466 1.99981 5.24998C1.99981 5.52665 1.77686 5.7496 1.50019 5.7496ZM6.75019 8.00056C5.37222 8.00056 4.24942 6.87911 4.24942 5.50113C4.24942 4.12316 5.37087 3.00037 6.75019 3.00037C8.12817 3.00037 9.24962 4.12182 9.24962 5.50113C9.25096 6.87911 8.12817 8.00056 6.75019 8.00056ZM6.75019 3.9996C6.14313 3.9996 5.59651 4.36491 5.36416 4.92496C5.13181 5.48502 5.26074 6.13103 5.68918 6.55946C6.11761 6.9879 6.76362 7.11683 7.32368 6.88448C7.88373 6.65213 8.24904 6.10551 8.24904 5.49845C8.24904 4.67247 7.57886 4.00094 6.75019 3.9996Z" fill="#164BD8"/>
<path d="M9.75063 11.001C9.61767 11.001 9.49142 10.9486 9.3974 10.8546C9.30339 10.7606 9.25101 10.633 9.25101 10.5013C9.25101 9.12337 8.12956 8.00058 6.75159 8.00058C5.37361 8.00058 4.25082 9.12203 4.25082 10.5013C4.25082 10.778 4.02653 11.001 3.7512 11.001C3.47588 11.001 3.25159 10.7767 3.25159 10.5013C3.25159 8.56869 4.81893 7.00134 6.75159 7.00134C8.68424 7.00134 10.2516 8.56869 10.2516 10.5013C10.2516 10.6343 10.1992 10.7606 10.1052 10.8546C10.0098 10.9472 9.88359 11.001 9.75063 11.001Z" fill="#164BD8"/>
<path d="M12.25 14H1.50021C0.948214 14 0.500977 13.5514 0.499634 12.9994V11.2508C0.499634 10.9741 0.723924 10.7512 0.99925 10.7512C1.27592 10.7512 1.49887 10.9754 1.49887 11.2508V13.0008H12.2487V1.00058H1.50021V3.25019C1.50021 3.52686 1.27592 3.74981 1.00059 3.74981C0.723924 3.74981 0.500977 3.52552 0.500977 3.25019V1.00058C0.500977 0.44858 0.949557 0.00134305 1.50155 0H12.2514C12.8034 0 13.2506 0.44858 13.2519 1.00058V13.0008C13.2492 13.5528 12.802 14 12.25 14Z" fill="#164BD8"/>
<path d="M1.50019 9.75056H0.499616C0.22429 9.75056 0 9.52627 0 9.25094C0 8.97427 0.22429 8.75133 0.499616 8.75133H1.50019C1.77686 8.75133 1.99981 8.97562 1.99981 9.25094C1.99981 9.52627 1.77686 9.75056 1.50019 9.75056ZM1.50019 7.75075H0.499616C0.22429 7.75075 0 7.52646 0 7.24979C0 6.97312 0.22429 6.75017 0.499616 6.75017H1.50019C1.77686 6.75017 1.99981 6.97446 1.99981 7.24979C1.99981 7.52646 1.77686 7.75075 1.50019 7.75075ZM1.50019 5.7496H0.499616C0.22429 5.7496 0 5.52665 0 5.24998C0 4.97331 0.22429 4.75037 0.499616 4.75037H1.50019C1.77686 4.75037 1.99981 4.97466 1.99981 5.24998C1.99981 5.52665 1.77686 5.7496 1.50019 5.7496ZM6.75019 8.00056C5.37222 8.00056 4.24942 6.87911 4.24942 5.50113C4.24942 4.12316 5.37087 3.00037 6.75019 3.00037C8.12817 3.00037 9.24962 4.12182 9.24962 5.50113C9.25096 6.87911 8.12817 8.00056 6.75019 8.00056ZM6.75019 3.9996C6.14313 3.9996 5.59651 4.36491 5.36416 4.92496C5.13181 5.48502 5.26074 6.13103 5.68918 6.55946C6.11761 6.9879 6.76362 7.11683 7.32368 6.88448C7.88373 6.65213 8.24904 6.10551 8.24904 5.49845C8.24904 4.67247 7.57886 4.00094 6.75019 3.9996Z" fill="#164BD8"/>
<path d="M9.75063 11.001C9.61767 11.001 9.49142 10.9486 9.3974 10.8546C9.30339 10.7606 9.25101 10.633 9.25101 10.5013C9.25101 9.12337 8.12956 8.00058 6.75159 8.00058C5.37361 8.00058 4.25082 9.12203 4.25082 10.5013C4.25082 10.778 4.02653 11.001 3.7512 11.001C3.47588 11.001 3.25159 10.7767 3.25159 10.5013C3.25159 8.56869 4.81893 7.00134 6.75159 7.00134C8.68424 7.00134 10.2516 8.56869 10.2516 10.5013C10.2516 10.6343 10.1992 10.7606 10.1052 10.8546C10.0098 10.9472 9.88359 11.001 9.75063 11.001Z" fill="#164BD8"/>
</svg>
