<svg width="17" height="17" viewBox="0 0 17 17" fill="none" xmlns="http://www.w3.org/2000/svg">
<path d="M16.2424 2.34135C16.0146 2.27053 15.7652 2.24128 15.5251 2.24128C13.6208 2.23359 11.7181 2.23666 9.81379 2.23666C7.87873 2.23666 5.94521 2.23666 4.01015 2.23666C3.95935 2.23666 3.91009 2.23512 3.85929 2.2382C3.54217 2.25668 3.30048 2.56148 3.35282 2.87399C3.36051 2.91709 3.37129 2.95558 3.38514 2.99406C3.64377 3.95159 3.90239 4.90911 4.16102 5.86663C4.37192 6.64866 4.58128 7.43069 4.79526 8.21118C4.85376 8.42208 5.00616 8.57141 5.19397 8.61913L5.19243 8.62991C5.21244 8.62991 5.234 8.62991 5.25401 8.62991C5.29557 8.63607 5.33714 8.6376 5.38178 8.63299C5.38948 8.63299 5.39564 8.63145 5.40333 8.62991C6.36086 8.63145 7.31838 8.63299 8.27437 8.63453C9.0841 8.63607 9.89384 8.6376 10.7036 8.6376C10.9915 8.6376 11.2193 8.44979 11.2639 8.18347C11.3286 7.80939 11.0638 7.52152 10.6543 7.52152C9.02407 7.51998 7.39381 7.5169 5.76356 7.51536C5.38794 6.1268 5.01386 4.73977 4.63824 3.35121C8.23742 3.35121 11.8351 3.35121 15.4342 3.35275C15.5543 3.35275 15.6729 3.3666 15.7929 3.37122C15.8622 3.3743 15.8915 3.40509 15.8791 3.47436C15.8576 3.58366 15.8453 3.69604 15.8145 3.80226C15.308 5.64958 14.7969 7.49689 14.292 9.3442C14.1658 9.80757 14.0595 10.2786 13.9456 10.7451C13.881 11.0145 13.6516 11.1746 13.3237 11.1746C10.3972 11.1746 7.46925 11.1746 4.54279 11.1746C4.512 11.1746 4.48122 11.1761 4.45043 11.173C4.15332 11.1515 3.95011 10.9606 3.90855 10.6666C3.89469 10.568 3.88392 10.4664 3.85621 10.371C3.15269 7.83402 2.44763 5.29705 1.74257 2.76007C1.52551 1.98112 1.31 1.20217 1.0914 0.421679C1.01289 0.144582 0.771195 -0.0247554 0.503335 0.00295431C0.126175 0.04144 -0.080108 0.372417 0.0291913 0.76805C0.858943 3.75454 1.69023 6.73949 2.51845 9.72598C2.61851 10.0862 2.74012 10.4449 2.794 10.8113C2.91562 11.6472 3.60066 12.2876 4.44735 12.2876C7.43538 12.2922 10.4249 12.2907 13.413 12.2876C14.2119 12.286 14.8862 11.7211 15.0417 10.9375C15.0632 10.8313 15.0679 10.722 15.0956 10.6188C15.6421 8.62683 16.1932 6.63481 16.7381 4.64125C16.8397 4.27025 16.9383 3.89463 16.9891 3.51439C17.063 2.97713 16.7566 2.49991 16.2424 2.34135Z" fill="#2C2C2C"/>
<path d="M5.67274 13.4099C4.73677 13.3576 3.95474 14.0734 3.90394 15.0325C3.85621 15.9284 4.58436 16.712 5.50956 16.7613C6.40243 16.8074 7.20909 16.0839 7.25219 15.1957C7.29838 14.2474 6.60255 13.4623 5.67274 13.4099ZM5.57883 15.6421C5.26941 15.6406 5.02002 15.3896 5.0231 15.0802C5.02618 14.7708 5.28019 14.5198 5.58653 14.5245C5.89288 14.5291 6.14534 14.7892 6.13919 15.0941C6.13303 15.3958 5.88056 15.6436 5.57883 15.6421Z" fill="#2C2C2C"/>
<path d="M12.2892 13.4067C11.3609 13.4052 10.6097 14.1549 10.6097 15.0832C10.6097 16.0068 11.3563 16.7581 12.2784 16.7596C13.2052 16.7627 13.9579 16.0099 13.9579 15.0816C13.9579 14.1595 13.2098 13.4098 12.2892 13.4067ZM12.28 15.642C11.9767 15.6405 11.7273 15.3926 11.7258 15.0893C11.7227 14.7814 11.9736 14.5259 12.2815 14.5244C12.5878 14.5228 12.8403 14.7753 12.8403 15.0847C12.8403 15.3941 12.5894 15.6435 12.28 15.642Z" fill="#2C2C2C"/>
</svg>
