<svg width="17" height="15" viewBox="0 0 17 15" fill="none" xmlns="http://www.w3.org/2000/svg">
<path d="M16.6965 0.504607C16.3623 0.0850852 15.8105 -0.0941001 15.2943 0.0481105L1.00358 3.88069C0.501578 4.01294 0.121876 4.42109 0.0251728 4.9302C-0.0743746 5.43789 0.126142 5.95981 0.541397 6.2684L3.70843 8.63905V13.3491C3.71696 13.9193 4.08386 14.4228 4.62568 14.6048C4.77358 14.6546 4.92433 14.6802 5.07365 14.6802C5.47184 14.6802 5.85296 14.5038 6.11321 14.1838L8.04301 11.8857L9.4324 12.9253C9.75095 13.1642 10.1591 13.2509 10.5473 13.1599C10.9356 13.0703 11.2641 12.8158 11.4461 12.4617L16.8487 1.9708C17.0961 1.49724 17.0364 0.919862 16.6965 0.504607ZM15.8162 1.44177L10.4137 11.9327C10.3866 11.9824 10.3397 12.0194 10.2842 12.0322C10.2288 12.045 10.1705 12.0336 10.125 11.9995L6.73609 9.46103C6.48011 9.26904 6.11747 9.32024 5.92549 9.57764C5.73351 9.83362 5.7847 10.1963 6.04068 10.3882L7.11295 11.1917L5.2187 13.4472C5.16893 13.5155 5.07934 13.5411 5.00112 13.5098C4.94139 13.4899 4.86887 13.4415 4.86602 13.3377V8.68314L12.6137 4.16511C12.7928 4.06129 12.9023 3.86931 12.9009 3.66168C12.8995 3.45405 12.7886 3.26349 12.6094 3.1611C12.4302 3.05871 12.2084 3.05871 12.0292 3.16394L4.32562 7.65638L1.23538 5.34119C1.17423 5.29853 1.14579 5.22315 1.16144 5.1492C1.17423 5.07526 1.22827 5.01695 1.3008 4.99988L15.5944 1.16731C15.6996 1.13887 15.765 1.19575 15.7949 1.23272C15.8248 1.26828 15.866 1.34507 15.8162 1.44177Z" fill="black"/>
</svg>
