<svg width="13" height="18" viewBox="0 0 13 18" fill="none" xmlns="http://www.w3.org/2000/svg">
<path d="M6.43969 0C7.42513 0 8.3702 0.391552 9.06703 1.08837C9.76385 1.7852 10.1554 2.73027 10.1554 3.71571V7.84416C10.1554 9.89628 8.49181 11.5596 6.43994 11.5596C4.38808 11.5596 2.72449 9.89603 2.72449 7.84416V3.71546C2.72449 2.73002 3.11604 1.78494 3.81286 1.08812C4.50918 0.391552 5.45425 0 6.43969 0ZM6.43969 1.32098C5.11719 1.32098 4.04522 2.39296 4.04522 3.71546V7.84391C4.04522 8.69942 4.50161 9.48984 5.24233 9.91747C5.9833 10.3454 6.89608 10.3454 7.6368 9.91747C8.37777 9.48984 8.83416 8.69917 8.83416 7.84391V3.71546C8.83416 2.39321 7.76219 1.32098 6.43969 1.32098Z" fill="#909399"/>
<path d="M0 8.25645C0 11.8132 2.88341 14.6966 6.44017 14.6966C9.99719 14.6966 12.8803 11.8132 12.8803 8.25645C12.8803 8.0203 12.7545 7.80233 12.5501 7.68426C12.3457 7.56619 12.0937 7.56619 11.8894 7.68426C11.685 7.80233 11.5591 8.0203 11.5591 8.25645C11.5591 11.0836 9.26707 13.3756 6.43992 13.3756C3.61277 13.3756 1.32073 11.0838 1.32073 8.25645C1.32073 8.0203 1.19484 7.80233 0.990485 7.68426C0.786132 7.56619 0.534347 7.56619 0.329994 7.68426C0.125892 7.80233 0 8.02056 0 8.25645Z" fill="#909399"/>
<path d="M5.77869 14.0372V16.6983C5.77869 17.0632 6.07437 17.3588 6.43918 17.3588C6.80399 17.3588 7.09967 17.0632 7.09967 16.6983V14.0372C7.09967 13.6724 6.80399 13.3767 6.43918 13.3767C6.07437 13.3767 5.77869 13.6724 5.77869 14.0372Z" fill="#909399"/>
<path d="M4.3762 18.0002H8.55158C8.78772 18.0002 9.0057 17.8743 9.12377 17.6699C9.24184 17.4656 9.24184 17.2138 9.12377 17.0094C9.0057 16.8051 8.78772 16.6792 8.55158 16.6792H4.3762C4.14031 16.6792 3.92208 16.8051 3.80401 17.0094C3.68594 17.2138 3.68594 17.4656 3.80401 17.6699C3.92208 17.8745 4.14031 18.0004 4.3762 18.0002Z" fill="#909399"/>
</svg>
